<svg height="540" width="1440" xmlns="http://www.w3.org/2000/svg"><g stroke-width="1.51"><path d="m735 209-123-34 48 216z" fill="#1e1e1e" stroke="#1e1e1e"/><path d="m612 175-41 198 89 18z" fill="#1e1e1e" stroke="#1e1e1e"/><path d="m660 391 207-93-132-89z" fill="#1b1b1b" stroke="#1b1b1b"/><path d="m571 373 123 113-34-95z" fill="#171717" stroke="#171717"/><path d="m694 486 173-188-207 93z" fill="#161616" stroke="#161616"/><path d="m612 175-224 160 183 38z" fill="#202020" stroke="#202020"/><path d="m571 373-115 235 238-122z" fill="#161616" stroke="#161616"/><path d="m735 209 70-254-193 220z" fill="#232323" stroke="#232323"/><path d="m867 298 31-152-163 63z" fill="#1c1c1c" stroke="#1c1c1c"/><path d="m612 175-297 85 73 75z" fill="#242424" stroke="#242424"/><path d="m898 146-39-128-124 191z" fill="#202020" stroke="#202020"/><path d="m612 175-253-180-44 265z" fill="#292929" stroke="#292929"/><path d="m805-45-220-13 27 233z" fill="#212121" stroke="#212121"/><path d="m388 335 18 203 165-165z" fill="#1b1b1b" stroke="#1b1b1b"/><path d="m234 472 172 66-18-203z" fill="#191919" stroke="#191919"/><path d="m859 18-54-63-70 254z" fill="#212121" stroke="#212121"/><path d="m406 538 50 70 115-235z" fill="#181818" stroke="#181818"/><path d="m867 298 166-106-135-46z" fill="#191919" stroke="#191919"/><path d="m898 146 135 46-174-174z" fill="#1d1d1d" stroke="#1d1d1d"/><path d="m860-221-139-35 84 211z" fill="#151515" stroke="#151515"/><path d="m1134 438-101-246-166 106z" fill="#121212" stroke="#121212"/><path d="m585-58-226 53 253 180z" fill="#252525" stroke="#252525"/><path d="m315 260-81 212 154-137z" fill="#1e1e1e" stroke="#1e1e1e"/><path d="m406 538-3 188 53-118z" fill="#191919" stroke="#191919"/><path d="m123 364 111 108 81-212z" fill="#191919" stroke="#191919"/><path d="m694 486 278 149-105-337z" fill="#0e0e0e" stroke="#0e0e0e"/><path d="m577 743 160-10-43-247z" fill="#131313" stroke="#131313"/><path d="m456 608 121 135 117-257z" fill="#151515" stroke="#151515"/><path d="m403 726 174 17-121-135z" fill="#181818" stroke="#181818"/><path d="m805-45-188-143-32 130z" fill="#1a1a1a" stroke="#1a1a1a"/><path d="m585-58-167-97-59 150z" fill="#1f1f1f" stroke="#1f1f1f"/><path d="m737 733 235-98-278-149z" fill="#0f0f0f" stroke="#0f0f0f"/><path d="m617-188-199 33 167 97z" fill="#1c1c1c" stroke="#1c1c1c"/><path d="m234 472 169 254 3-188z" fill="#191919" stroke="#191919"/><path d="m972 635 162-197-267-140z" fill="#040504" stroke="#040504"/><path d="m972 635 204-36-42-161z" stroke="#000"/><path d="m737 733 201-11 34-87z" fill="#0b0b0b" stroke="#0b0b0b"/><path d="m1087 716-149 6 367 42z" stroke="#000"/><path d="m234 472-147 342 316-88z" fill="#141414" stroke="#141414"/><path d="m112 202 11 162 192-104z" fill="#1c1c1c" stroke="#1c1c1c"/><path d="m112 202 203 58 44-265z" fill="#242424" stroke="#242424"/><path d="m617-188 104-68-303 101z" fill="#191919" stroke="#191919"/><path d="m805-45-84-211-104 68z" fill="#171717" stroke="#171717"/><path d="m860-221-55 176 54 63z" fill="#171717" stroke="#171717"/><path d="m50 156 62 46-49-188z" fill="#1f1f1f" stroke="#1f1f1f"/><path d="m1027-218-167-3-1 239z" fill="#131313" stroke="#131313"/><path d="m1033 192 120-268-294 94z" fill="#181818" stroke="#181818"/><path d="m1134 438 70-81-171-165z" fill="#0e0e0e" stroke="#0e0e0e"/><path d="m1244 513-40-156-70 81z" fill="#020302" stroke="#020302"/><path d="m112 202-117 148 128 14z" fill="#181818" stroke="#181818"/><path d="m63 14 49 188 247-207z" fill="#232323" stroke="#232323"/><path d="m1087 716 89-117-204 36z" stroke="#000"/><path d="m1254-36-101-40-120 268z" fill="#151515" stroke="#151515"/><path d="m938 722 149-6-115-81z" fill="#040404" stroke="#040404"/><path d="m1305 764-367-42-201 11z" fill="#040504" stroke="#040504"/><path d="m1153-76-126-142-168 236z" fill="#0f0f0f" stroke="#0f0f0f"/><path d="m860-221 353-69-492 34z" fill="#0b0b0b" stroke="#0b0b0b"/><path d="m1399 421-155 92 218 101z" stroke="#000"/><path d="m1176 599 68-86-110-75z" stroke="#000"/><path d="m1324 168-70-204-221 228z" fill="#191919" stroke="#191919"/><path d="m418-155-217-26 158 176z" fill="#1e1e1e" stroke="#1e1e1e"/><path d="m721-256-520 75 217 26z" fill="#1c1c1c" stroke="#1c1c1c"/><path d="m68-58-5 72 296-19z" fill="#1a1a1a" stroke="#1a1a1a"/><path d="m123 364-174 190 285-82z" fill="#0e0e0e" stroke="#0e0e0e"/><path d="m50 156-55 194 117-148z" fill="#1a1a1a" stroke="#1a1a1a"/><path d="m-175 237 170 113 55-194z" fill="#191919" stroke="#191919"/><path d="m-213-14 38 251 225-81z" fill="#1c1c1c" stroke="#1c1c1c"/><path d="m201-181-133 123 291 53z" fill="#191919" stroke="#191919"/><path d="m1153-76 60-214-186 72z" fill="#070707" stroke="#070707"/><path d="m1324 168-291 24 171 165z" fill="#131313" stroke="#131313"/><g fill="#0f0f0f" stroke="#0f0f0f"><path d="m1399 421-75-253-120 189z"/><path d="m-5 350-46 204 174-190z"/><path d="m-209 298 158 256 46-204z"/></g><path d="m1305 764-61-251-68 86z" stroke="#000"/><path d="m1244 513 155-92-195-64z" fill="#030303" stroke="#030303"/><path d="m577 743 728 21-568-31z" fill="#0c0c0c" stroke="#0c0c0c"/><path d="m403 726-316 88 490-71z" fill="#191919" stroke="#191919"/><path d="m-51 554 138 260 147-342z" fill="#0d0d0d" stroke="#0d0d0d"/><path d="m1254-36-41-254-60 214z" fill="#0b0b0b" stroke="#0b0b0b"/><path d="m1027-218 186-72-353 69z" fill="#050605" stroke="#050605"/><path d="m1479-201-266-89 41 254z" fill="#090909" stroke="#090909"/><path d="m1418 34-164-70 70 204z" fill="#181818" stroke="#181818"/><path d="m1465 85-47-51-94 134z" fill="#191919" stroke="#191919"/><path d="m1087 716 218 48-129-165z" stroke="#000"/><path d="m87 814 1218-50-728-21z" fill="#141414" stroke="#141414"/><path d="m-213-14 263 170 13-142z" fill="#1d1d1d" stroke="#1d1d1d"/><path d="m-51 554 25 221 113 39z" fill="#0b0b0b" stroke="#0b0b0b"/><path d="m-180 584 154 191-25-221z" fill="#090909" stroke="#090909"/><path d="m1399 421 66-336-141 83z" fill="#141414" stroke="#141414"/><path d="m1418 34 61-235-225 165z" fill="#0e0e0e" stroke="#0e0e0e"/><path d="m201-181-199-90 66 213z" fill="#141414" stroke="#141414"/><path d="m68-58-281 44 276 28z" fill="#181818" stroke="#181818"/><path d="m721-256-719-15 199 90z" fill="#191919" stroke="#191919"/><path d="m1213-290-1211 19 719 15z" fill="#141414" stroke="#141414"/><path d="m-213-14 4 312 34-61z" fill="#191919" stroke="#191919"/><path d="m-175 237-34 61 204 52z" fill="#151515" stroke="#151515"/><path d="m1305 764 157-150-218-101z" stroke="#000"/><path d="m1399 421 166-316-100-20z" fill="#151515" stroke="#151515"/><path d="m-209 298 29 286 129-30z" fill="#070707" stroke="#070707"/><path d="m2-271-215 257 281-44z" fill="#131313" stroke="#131313"/><path d="m1305 764 153-30 4-120z" stroke="#000"/><path d="m1682 365-283 56 63 193z" stroke="#000"/><path d="m1682 365-117-260-166 316z" fill="#111" stroke="#111"/><path d="m1465 85 100 20-147-71z" fill="#191919" stroke="#191919"/><path d="m1689 0-210-201-61 235z" fill="#0e0e0e" stroke="#0e0e0e"/><path d="m-209 298-2 444 31-158z" fill="#040504" stroke="#040504"/><path d="m-180 584-31 158 185 33z" fill="#070707" stroke="#070707"/><path d="m-26 775-185-33 298 72z" fill="#0a0a0a" stroke="#0a0a0a"/><path d="m-243-267 32 1009 2-444z" fill="#151515" stroke="#151515"/><path d="m1565 105 124-105-271 34z" fill="#171717" stroke="#171717"/><path d="m1649 619 33-254-220 249z" stroke="#000"/><path d="m-213-14-30-253 34 565z" fill="#161616" stroke="#161616"/><path d="m2-271-245 4 30 253z" fill="#0e0e0e" stroke="#0e0e0e"/><path d="m1458 734 191-115-187-5z" stroke="#000"/><path d="m1682 365 7-365-124 105z" fill="#171717" stroke="#171717"/><path d="m1479-201 148-72-414-17z" fill="#020302" stroke="#020302"/><path d="m1689 0-62-273-148 72z" fill="#0a0a0a" stroke="#0a0a0a"/><path d="m1458 734 282-48-91-67z" stroke="#000"/><path d="m1649 619 91 67-58-321z" stroke="#000"/><path d="m1682 365 58 321-51-686z" fill="#0d0d0d" stroke="#0d0d0d"/><path d="m1305 764 435-78-282 48z" stroke="#000"/></g></svg>